HIERARCHY
ROOT hips
{
  OFFSET 0 10.074487846421558 1.314567655973056
  CHANNELS 6 Xposition Yposition Zposition Yrotation Xrotation Zrotation
  JOINT spine
  {
    OFFSET -7.042773748992335e-31 0.5690686926897363 0
    CHANNELS 3 Yrotation Xrotation Zrotation
    JOINT chest
    {
      OFFSET 0 1.2435964857087873 0
      CHANNELS 3 Yrotation Xrotation Zrotation
      JOINT upperChest
      {
        OFFSET 0 1.194994586872362 0
        CHANNELS 3 Yrotation Xrotation Zrotation
        JOINT neck
        {
          OFFSET 0 1.515103653293861 0
          CHANNELS 3 Yrotation Xrotation Zrotation
          JOINT head
          {
            OFFSET 0 0.8111851616465653 0
            CHANNELS 3 Yrotation Xrotation Zrotation
            JOINT leftEye
            {
              OFFSET 0.27141371691966987 0.7490044407698551 0.18219031050045686
              CHANNELS 3 Yrotation Xrotation Zrotation
              End Site
              {
                OFFSET 0.27141371691966987 0.7490044407698551 0.18219031050045686
              }
            }
            JOINT rightEye
            {
              OFFSET -0.2714136877644943 0.7490044019380786 0.18219040411850668
              CHANNELS 3 Yrotation Xrotation Zrotation
              End Site
              {
                OFFSET -0.2714136877644943 0.7490044019380786 0.18219040411850668
              }
            }
          }
        }
        JOINT leftShoulder
        {
          OFFSET 0.4137993136083964 1.1593397335613034 0
          CHANNELS 3 Yrotation Xrotation Zrotation
          JOINT leftUpperArm
          {
            OFFSET 1.0096991868951026 0 0
            CHANNELS 3 Yrotation Xrotation Zrotation
            JOINT leftLowerArm
            {
              OFFSET 2.418380967671622 0 0
              CHANNELS 3 Yrotation Xrotation Zrotation
              JOINT leftHand
              {
                OFFSET 2.361538296260114 0 0
                CHANNELS 3 Yrotation Xrotation Zrotation
                JOINT leftIndexProximal
                {
                  OFFSET 0.7243699271447109 0.08118285989887508 0.2022042461579805
                  CHANNELS 3 Yrotation Xrotation Zrotation
                  JOINT leftIndexIntermediate
                  {
                    OFFSET 0.36553107045252053 -0.010567764853200323 -0.014102670024158437
                    CHANNELS 3 Yrotation Xrotation Zrotation
                    JOINT leftIndexDistal
                    {
                      OFFSET 0.22505120770060527 -0.007821041598631284 -0.007511611613336286
                      CHANNELS 3 Yrotation Xrotation Zrotation
                      End Site
                      {
                        OFFSET 0.22505120770060527 -0.007821041598631284 -0.007511611613336286
                      }
                    }
                  }
                }
                JOINT leftLittleProximal
                {
                  OFFSET 0.6721063881632002 0.08118279568569564 -0.3209324945517917
                  CHANNELS 3 Yrotation Xrotation Zrotation
                  JOINT leftLittleIntermediate
                  {
                    OFFSET 0.34587329423120616 5.3042709780015684e-8 -5.929537746918179e-8
                    CHANNELS 3 Yrotation Xrotation Zrotation
                    JOINT leftLittleDistal
                    {
                      OFFSET 0.1992782500022232 0.0030983716482184676 0.0038310952896712935
                      CHANNELS 3 Yrotation Xrotation Zrotation
                      End Site
                      {
                        OFFSET 0.1992782500022232 0.0030983716482184676 0.0038310952896712935
                      }
                    }
                  }
                }
                JOINT leftMiddleProximal
                {
                  OFFSET 0.7301229696860206 0.08118412848995638 0.022516891543707507
                  CHANNELS 3 Yrotation Xrotation Zrotation
                  JOINT leftMiddleIntermediate
                  {
                    OFFSET 0.4076277831942017 -0.000001240188283180288 -1.6203245635504349e-7
                    CHANNELS 3 Yrotation Xrotation Zrotation
                    JOINT leftMiddleDistal
                    {
                      OFFSET 0.2514739255593972 0.0000013850839168938478 -1.8644847207816007e-8
                      CHANNELS 3 Yrotation Xrotation Zrotation
                      End Site
                      {
                        OFFSET 0.2514739255593972 0.0000013850839168938478 -1.8644847207816007e-8
                      }
                    }
                  }
                }
                JOINT leftRingProximal
                {
                  OFFSET 0.7218060861525873 0.08118280646416753 -0.1494689818508163
                  CHANNELS 3 Yrotation Xrotation Zrotation
                  JOINT leftRingIntermediate
                  {
                    OFFSET 0.3781267508900358 0.000001373626195677602 -1.4143108284514483e-7
                    CHANNELS 3 Yrotation Xrotation Zrotation
                    JOINT leftRingDistal
                    {
                      OFFSET 0.21814333268795483 -0.0027137626495670197 -0.004991775417842292
                      CHANNELS 3 Yrotation Xrotation Zrotation
                      End Site
                      {
                        OFFSET 0.21814333268795483 -0.0027137626495670197 -0.004991775417842292
                      }
                    }
                  }
                }
                JOINT leftThumbProximal
                {
                  OFFSET 0.10743676110519984 -0.16423092885053192 -0.07708859146227388
                  CHANNELS 3 Yrotation Xrotation Zrotation
                  JOINT leftThumbIntermediate
                  {
                    OFFSET 0.40350402100066307 -0.01735099334274981 0.315629965828783
                    CHANNELS 3 Yrotation Xrotation Zrotation
                    JOINT leftThumbDistal
                    {
                      OFFSET 0.2320014489535681 -0.01842351809041043 0.21271298411519196
                      CHANNELS 3 Yrotation Xrotation Zrotation
                      End Site
                      {
                        OFFSET 0.2320014489535681 -0.01842351809041043 0.21271298411519196
                      }
                    }
                  }
                }
              }
            }
          }
        }
        JOINT rightShoulder
        {
          OFFSET -0.41379931360839656 1.1593397335613034 0
          CHANNELS 3 Yrotation Xrotation Zrotation
          JOINT rightUpperArm
          {
            OFFSET -1.0096991868951024 0 0
            CHANNELS 3 Yrotation Xrotation Zrotation
            JOINT rightLowerArm
            {
              OFFSET -2.4183809676716232 0 0
              CHANNELS 3 Yrotation Xrotation Zrotation
              JOINT rightHand
              {
                OFFSET -2.3615382962601132 0 0
                CHANNELS 3 Yrotation Xrotation Zrotation
                JOINT rightIndexProximal
                {
                  OFFSET -0.7243699271447109 0.08118285989887508 0.2022042461579805
                  CHANNELS 3 Yrotation Xrotation Zrotation
                  JOINT rightIndexIntermediate
                  {
                    OFFSET -0.36553107045252053 -0.010567764853200323 -0.014102670024158437
                    CHANNELS 3 Yrotation Xrotation Zrotation
                    JOINT rightIndexDistal
                    {
                      OFFSET -0.22505120770060527 -0.007821041598631284 -0.007511611613336286
                      CHANNELS 3 Yrotation Xrotation Zrotation
                      End Site
                      {
                        OFFSET -0.22505120770060527 -0.007821041598631284 -0.007511611613336286
                      }
                    }
                  }
                }
                JOINT rightLittleProximal
                {
                  OFFSET -0.6721063881632002 0.08118279568569564 -0.3209324945517917
                  CHANNELS 3 Yrotation Xrotation Zrotation
                  JOINT rightLittleIntermediate
                  {
                    OFFSET -0.34587329423120616 5.3042709780015684e-8 -5.929537746918179e-8
                    CHANNELS 3 Yrotation Xrotation Zrotation
                    JOINT rightLittleDistal
                    {
                      OFFSET -0.1992782500022232 0.0030983716482184676 0.0038310952896712935
                      CHANNELS 3 Yrotation Xrotation Zrotation
                      End Site
                      {
                        OFFSET -0.1992782500022232 0.0030983716482184676 0.0038310952896712935
                      }
                    }
                  }
                }
                JOINT rightMiddleProximal
                {
                  OFFSET -0.7301229696860206 0.08118412848995638 0.022516891543707507
                  CHANNELS 3 Yrotation Xrotation Zrotation
                  JOINT rightMiddleIntermediate
                  {
                    OFFSET -0.4076277831942017 -0.000001240188283180288 -1.6203245635504349e-7
                    CHANNELS 3 Yrotation Xrotation Zrotation
                    JOINT rightMiddleDistal
                    {
                      OFFSET -0.2514739255593972 0.0000013850839168938478 -1.8644847207816007e-8
                      CHANNELS 3 Yrotation Xrotation Zrotation
                      End Site
                      {
                        OFFSET -0.2514739255593972 0.0000013850839168938478 -1.8644847207816007e-8
                      }
                    }
                  }
                }
                JOINT rightRingProximal
                {
                  OFFSET -0.7218060861525873 0.08118280646416753 -0.1494689818508163
                  CHANNELS 3 Yrotation Xrotation Zrotation
                  JOINT rightRingIntermediate
                  {
                    OFFSET -0.3781267508900358 0.000001373626195677602 -1.4143108284514483e-7
                    CHANNELS 3 Yrotation Xrotation Zrotation
                    JOINT rightRingDistal
                    {
                      OFFSET -0.21814333268795483 -0.0027137626495670197 -0.004991775417842292
                      CHANNELS 3 Yrotation Xrotation Zrotation
                      End Site
                      {
                        OFFSET -0.21814333268795483 -0.0027137626495670197 -0.004991775417842292
                      }
                    }
                  }
                }
                JOINT rightThumbProximal
                {
                  OFFSET -0.10743676110519984 -0.16423092885053192 -0.07708859146227388
                  CHANNELS 3 Yrotation Xrotation Zrotation
                  JOINT rightThumbIntermediate
                  {
                    OFFSET -0.40350402100066307 -0.01735099334274981 0.315629965828783
                    CHANNELS 3 Yrotation Xrotation Zrotation
                    JOINT rightThumbDistal
                    {
                      OFFSET -0.2320014489535681 -0.01842351809041043 0.21271298411519196
                      CHANNELS 3 Yrotation Xrotation Zrotation
                      End Site
                      {
                        OFFSET -0.2320014489535681 -0.01842351809041043 0.21271298411519196
                      }
                    }
                  }
                }
              }
            }
          }
        }
      }
    }
  }
  JOINT leftUpperLeg
  {
    OFFSET 0.8487163290887698 -0.43932186100277326 0
    CHANNELS 3 Yrotation Xrotation Zrotation
    JOINT leftLowerLeg
    {
      OFFSET 0 -3.882816707004296 0
      CHANNELS 3 Yrotation Xrotation Zrotation
      JOINT leftFoot
      {
        OFFSET 0 -4.570431027442807 0.004629272230691511
        CHANNELS 3 Yrotation Xrotation Zrotation
        JOINT leftToes
        {
          OFFSET 0 -0.698875637876343 1.214565366696912
          CHANNELS 3 Yrotation Xrotation Zrotation
          End Site
          {
            OFFSET 0 -0.698875637876343 1.214565366696912
          }
        }
      }
    }
  }
  JOINT rightUpperLeg
  {
    OFFSET -0.8487163290887698 -0.43932186100277326 0
    CHANNELS 3 Yrotation Xrotation Zrotation
    JOINT rightLowerLeg
    {
      OFFSET 0 -3.882816707004296 0
      CHANNELS 3 Yrotation Xrotation Zrotation
      JOINT rightFoot
      {
        OFFSET 0 -4.570431027442807 0.004629272230691511
        CHANNELS 3 Yrotation Xrotation Zrotation
        JOINT rightToes
        {
          OFFSET 0 -0.698875637876343 1.214565366696912
          CHANNELS 3 Yrotation Xrotation Zrotation
          End Site
          {
            OFFSET 0 -0.698875637876343 1.214565366696912
          }
        }
      }
    }
  }
}
MOTION
Frames: 4
Frame Time: 0.03333333333333333
-0.2825593054294586 -0.23334614567692924 0.30032557249069214 -9.777065294220263 -5.326539873905401 -0.914813364935328 0.43750133457167184 1.9758184633118527 1.596212308147372 2.090622177881068 7.835856324738395 5.636984486569078 0 0 0 -0.9203931462325355 0.6586475136347852 -2.175106801227743 -13.150677370286738 0.4395659117875419 3.601593819055485 0 0 0 0 0 0 -17.84086973549467 1.2407756543808712 -4.051122319397954 -42.40196575090546 39.82245722033735 -78.36291097926403 -71.17114773757665 -2.4270977978066766 2.935212769868308 -35.937085566488626 33.619504304664105 42.112844941504335 -2.5592162847795046 -0.10108252325324976 -4.998327766692889 2.374300031771117 0.30284602154318224 -20.5266048175833 0.5866268848479091 0.014198272557745388 -10.184977069301475 9.812299410827245 2.247723250114034 -33.0128002981587 3.140486017907567 0.9764830035093258 -45.55935416609817 2.410311406612269 0.40722418932580245 -20.658613372469354 1.7117563126331181 -0.9319065281692857 -12.864547570950592 3.2705984792776404 0.693008957688577 -33.10964579699778 1.2328861524166534 0.1490619898155247 -12.673966674125046 4.976958543872786 -0.41447291394529523 -23.066789115800137 3.1367813888652463 1.4392634667914996 -40.87568161249502 1.427064480695659 0.4752246114571202 -19.45760357419041 -7.397498946521874 -31.927498409915547 36.167264218787565 27.125479840856805 7.940866967913235 12.155356014420816 -34.46390320574823 -23.73209129750875 1.8634404584404547 15.627683177844967 1.4486226239563613 10.247711714536647 30.785828478297415 -46.2683092864228 27.880914398637316 149.56598292779137 -0.621842928640588 -6.521835907066846 -15.583847049852354 12.413324494512455 -33.994942159188206 -9.35888975379997 2.9346915352221568 -6.684876800458677 -4.991607958222548 2.903689203567661 69.12355304065797 0.6635332629617438 -0.184927946320405 6.902961791999052 -6.981769591654532 -7.662306889248268 2.0683843879411454 -4.722327574955289 5.2202485136862595 106.38486848042568 2.163867331598107 -2.409216447569884 23.58547795258552 -9.948821624844863 0.7654181404601939 3.7687370521145973 -5.3281082498156405 3.8665236091515744 83.6546437153602 2.7647050099019816 -1.8611459402729853 23.01954974989665 -4.7672989750629435 0.16491646590801953 5.03798926295644 -3.957232797583968 6.097466936242873 104.95692881605099 3.165428201974182 -2.7745827077835488 32.63529019296522 15.402111752229986 3.097736148155899 -14.746554194567645 -28.661006279516975 -7.004761844876607 -8.68846112617622 35.10549187459762 -25.526382109111886 3.3910763128482038 16.633402348169486 -10.431107757309187 11.160332283193682 5.471159600086525 20.752823841511802 2.3707608817868926 1.8115018581823046 -4.347176175373981 -9.466632698268564 0.0000075288239139398225 -4.967356448544689 -9.045960808592678e-8 -4.377723628098098 0.14010156683976407 8.398866402276875 -6.714769537501391 17.95233310509927 -3.4675940377257213 -0.7557373805053376 -14.376923679359933 -4.613086512299274 0.000006406855748384277 0.3341892305007791 -8.431748911198493e-7
-0.27674219012260437 -0.23347489170964408 0.3026910424232483 -9.755412087692543 -5.224088504663794 -0.9432874210019017 0.43788029835874315 1.9675622798166483 1.6009679072988228 2.0904433098117905 7.80281025736804 5.644774744247945 0 0 0 -0.9210079547166552 0.641416345323863 -2.156336555601318 -13.040853524899298 0.7160808933637778 3.7989933737401316 0 0 0 0 0 0 -17.792350281583992 1.2383952032586616 -4.052972343422078 -42.14744409139606 39.78549854746589 -78.34787023710354 -71.16777864578583 -2.429994905970682 2.935017138615657 -36.141508596902334 33.68406292041214 41.75221772808929 -2.6978995482661596 -0.09390010203135377 -4.887511080948967 2.3742932073502874 0.3028114165467382 -20.526512884824868 0.586639477349592 0.014218061097143018 -10.18496638158283 9.71280879525544 2.173008136268463 -32.89596233806462 3.140928103852038 0.9768054566264498 -45.56642381378214 2.410319937010835 0.40721719887751573 -20.65854262451883 1.5782936069661102 -0.9569707512038497 -12.749844228570971 3.270589973083977 0.6930063961802719 -33.109579502768874 1.2328705746016475 0.1490412056929956 -12.673554029144128 4.85521866329227 -0.46208470217179676 -22.948661733732102 3.1372209391516033 1.4397464282079995 -40.88400697898128 1.427040709957463 0.4752151662612789 -19.457343753912333 -7.57281795106597 -31.775724009393276 36.29524371714973 27.122178358490846 7.917127944912905 12.08647361084842 -34.40003168306065 -23.696163485717832 1.86936696985424 15.60720092150702 1.449394148437656 10.274817166506999 30.90699555919207 -45.89727151183271 27.88618986304223 149.5699987334771 -0.620877680772972 -6.521907200362242 -15.663660936902092 12.556451297024221 -34.467747287153045 -9.359744278119452 2.934542142364842 -6.684976090180777 -4.991614345440573 2.9036913407457066 69.12355943065677 0.6635300615086656 -0.1849251982221673 6.902953753240639 -6.981764452505872 -7.662335317612687 2.068325200769463 -4.722317321923661 5.220271661585524 106.38484709510811 2.1638820617121546 -2.409215165776414 23.585497917070917 -9.948869650617228 0.7654201149879404 3.7687545181834907 -5.328107823803626 3.8665189026838984 83.65460719169846 2.7645971248010652 -1.8611946310573577 23.020517288040992 -4.766505010578273 0.16481133125237893 5.038057601158475 -3.957236889235622 6.09749698833681 104.95692881605099 3.1654386570000996 -2.774576724353723 32.63530539792249 15.402119255101203 3.097745553408946 -14.74656664116557 -28.661061750445022 -7.0047721672061405 -8.688471330049971 35.10556308458289 -25.52627614281292 3.390998341811909 16.646855363038995 -10.571306259762316 11.118822666073346 5.432796843360089 20.833047768151715 2.350558434904697 1.8229349692431922 -4.403144480616575 -9.417009822951718 0.000006711532165565503 -4.986356671486271 -0.000002228138359098853 -4.42971452739236 0.031643457615342506 8.378749593003173 -6.647302095182208 17.984294846580234 -3.4326189536415597 -0.7652586059744251 -14.370329325377707 -4.566348064122693 0.000017209686992975857 0.3274568729492816 8.77930175462775e-7
-0.2637109160423279 -0.23604599766667533 0.30483031272888184 -9.725047372286518 -5.027376508230513 -1.061896137153605 0.43085365735459985 1.9646278398481327 1.626126031991782 2.0641582304932493 7.791599008166739 5.697871796980647 0 0 0 -0.9222760214357052 0.6039815489020866 -2.1164206629838103 -12.86028010270237 0.8334173752956093 4.107525576397763 0 0 0 0 0 0 -17.652313417799643 1.2390504142106271 -3.998852265188872 -41.743662591809986 39.605376686992294 -78.386493731833 -71.0576755364704 -2.4326418526447693 2.928570877440914 -36.61061650301038 33.82477395996701 41.111954160428134 -2.9181783070348994 -0.08107887482993853 -4.713181783945742 2.3742883022977743 0.30283879104661465 -20.526371385703076 0.5866245904514099 0.014206099928094261 -10.184987153140233 9.553799762089367 2.055016547434388 -32.71218221373021 3.1413573746435834 0.9771590770450181 -45.57355147264736 2.4102942021888225 0.40724772205633913 -20.658325980206072 1.3661691836747312 -0.9959948353862301 -12.570711583154003 3.270617872410536 0.6930127465862806 -33.11004841350714 1.23279463929904 0.1490534920709453 -12.672734653714858 4.661429733140144 -0.5367635501136195 -22.762277377013945 3.1379468346008883 1.4405090889732886 -40.897674467044936 1.4270168108880283 0.4752220500480772 -19.456782058492358 -7.8344032530501675 -31.474276262152515 36.4923125329875 27.110619769026183 7.868515441560886 11.947195167444066 -34.2698460739565 -23.623441037545923 1.8811926984458216 15.513175109403354 1.4600560950218116 10.309230336340809 30.99415007363464 -45.38155106948754 27.95999037744749 149.57379721896115 -0.6208254374308986 -6.521969901972599 -15.493504094886353 12.790375472929668 -35.08656597179882 -9.361431950944386 2.9342910170774403 -6.68518573409539 -4.9916147712551036 2.9036759530638663 69.12354505316023 0.6635335831070512 -0.184932868884725 6.902950362883955 -6.981745213255386 -7.662353408391033 2.0683466325185265 -4.722327574955289 5.220261802294992 106.38485861027971 2.1638704047366866 -2.409204697796453 23.585482651456665 -9.948947701814905 0.7654318554232087 3.7687986208494326 -5.328103563683445 3.866507778305856 83.65453409744556 2.764381994501745 -1.8612956430836116 23.022426342237214 -4.764929560743843 0.16464851327706312 5.038172039778275 -3.957236652212479 6.097472088030286 104.9569037022841 3.1654256415596396 -2.7745824940896258 32.63529019296522 15.402126757972812 3.0977848844680484 -14.746560026288757 -28.661183259447025 -7.004748511867966 -8.688474731341099 35.105685670980534 -25.52607556400326 3.3908237223456767 16.658691361300193 -10.974941796398452 11.082057579916002 5.3442622041800485 21.178464923148383 2.356396232917565 1.854784337023639 -4.590789587807844 -9.335963413859043 0.000015333219788240193 -4.814965078905201 -0.000004036168565021846 -4.544315630378901 -0.23377614597982152 8.385004720771649 -6.517260251258699 18.14736399615542 -3.3399379223283727 -0.7686367386073072 -14.423681136554723 -4.5329632296702265 0.0000031995330474022087 0.30137977832482865 -0.000001702675531362868
-0.23959894478321075 -0.24298683934148002 0.3055283725261688 -9.779909223341805 -4.772386151761176 -1.3491069409218928 0.41247150076218336 1.9814199968549617 1.7045306447688646 2.005476072642165 7.859089074557994 5.895018523694814 0 0 0 -0.9225014217758502 0.5527685273990145 -2.0886660210879575 -12.94115402655667 0.33660881310959645 4.239201764431988 0 0 0 0 0 0 -17.635931228623328 1.2477677882809632 -3.9239319383824878 -41.14756522418847 39.223165861300835 -78.49517876750673 -70.70503678476751 -2.4311645609430843 2.907892419464862 -37.39862246597654 34.00605101434543 40.4191145032984 -3.0214047284140335 -0.06076495609471451 -4.553956681446611 2.374266762718935 0.30281261718269625 -20.52616873196982 0.5866365426564083 0.014189671455006138 -10.184969742862508 9.478689648607897 1.9971141306755593 -32.548239272551456 3.141647960406722 0.9773892025169997 -45.57813575314053 2.4102622131943456 0.40724046479702797 -20.65797902453311 1.2650330004923425 -1.0062588681365294 -12.408280243575174 3.2707603891297508 0.693097916738278 -33.11201311217612 1.2327015991949002 0.14901521886973257 -12.671464483803062 4.5690225364042 -0.56742281151483 -22.596482749108855 3.1384223622177077 1.4410596268652203 -40.906767255503134 1.4269309452495833 0.475146701932488 -19.455840153316508 -7.930774228169372 -31.018516081869286 36.65893220016561 27.09187531126765 7.794099754252862 11.736987208136874 -34.06865244381887 -23.51209314842172 1.898990393075708 15.423377876459499 1.4711412764663632 10.325647809041929 31.000117766643314 -45.586386086419076 27.8619064412272 149.56889638297727 -0.6217677387710578 -6.521857926595271 -14.994830260987044 12.907366543748129 -35.028717296394376 -9.363966841862405 2.9338845148168984 -6.685519715417458 -4.991622307631686 2.9036998894579304 69.12359305983792 0.6635435609691169 -0.1849269991603327 6.902940615608214 -6.981724263847501 -7.662374083567228 2.0683415914587076 -4.722330138213148 5.2202425123791825 106.38486654568621 2.1638692529173467 -2.409219652053565 23.585490284263738 -9.949074870725166 0.7654474915484113 3.768812252902147 -5.328105267731524 3.866489808157021 83.65446998015834 2.7640692178085455 -1.8614472679118963 23.02532266769415 -4.762593612418623 0.16439152635010945 5.038398790824666 -3.957243933177348 6.09747037076781 104.9568937477924 3.165431615860219 -2.774587409049862 32.63528731366895 15.402164104265179 3.0978374683863046 -14.746531042495814 -28.661635662236453 -7.004681416733489 -8.688508224476541 35.105875113537614 -25.525755773953026 3.390576340011156 16.473755938703327 -11.671411340212117 11.049082728250793 5.558629617312429 21.95124249264795 2.7019409495245714 1.8993284363651188 -4.992736766241348 -9.362380330059283 -0.000004163805581077896 -4.673920306546086 -0.0000012372534809934756 -4.714241311315455 -0.6379911121343302 8.472529883407859 -6.26091050036616 18.48587938202373 -3.151151809196202 -0.7417651242278226 -14.60758910632826 -4.633904083576451 0.000023188318229079663 0.26343644194588073 -0.0000025028163844976002
